<svg width="58" height="55" viewBox="0 0 58 55" fill="none" xmlns="http://www.w3.org/2000/svg">
<path d="M0.5 8.0292C0.5 3.5948 4.0948 0 8.5292 0H38.6387C43.0731 0 46.6679 3.5948 46.6679 8.0292V46.1679C46.6679 50.6023 43.0731 54.1971 38.6387 54.1971H8.5292C4.0948 54.1971 0.5 50.6023 0.5 46.1679V8.0292Z" fill="#E8ECF1"/>
<path d="M8.5292 10.438C8.5292 9.10764 9.60764 8.0292 10.938 8.0292H13.3467C14.677 8.0292 15.7555 9.10764 15.7555 10.438V27.7008C15.7555 29.0311 14.677 30.1095 13.3467 30.1095H10.938C9.60764 30.1095 8.5292 29.0311 8.5292 27.7008V10.438Z" fill="#9EA1A4"/>
<path d="M19.7701 16.326C19.7701 14.9957 20.8485 13.9173 22.1789 13.9173H24.5876C25.9179 13.9173 26.9964 14.9957 26.9964 16.326V27.7008C26.9964 29.0311 25.9179 30.1095 24.5876 30.1095H22.1789C20.8485 30.1095 19.7701 29.0311 19.7701 27.7008V16.326Z" fill="#9EA1A4"/>
<path d="M31.4124 21.4781C31.4124 20.1478 32.4909 19.0694 33.8212 19.0694H36.23C37.5603 19.0694 38.6387 20.1478 38.6387 21.4781V27.7008C38.6387 29.0311 37.5603 30.1095 36.23 30.1095H33.8212C32.4909 30.1095 31.4124 29.0311 31.4124 27.7008V21.4781Z" fill="#9EA1A4"/>
<path d="M25.9961 36.9414C26.5484 36.9414 26.9961 37.3891 26.9961 37.9414C26.9961 38.4937 26.5484 38.9414 25.9961 38.9414H9.5293C8.97701 38.9414 8.5293 38.4937 8.5293 37.9414C8.5293 37.3891 8.97701 36.9414 9.5293 36.9414H25.9961Z" fill="#9EA1A4"/>
<path d="M19.8408 44.1675C20.3931 44.1675 20.8408 44.6152 20.8408 45.1675C20.8408 45.7197 20.3931 46.1674 19.8408 46.1675H9.5293C8.97701 46.1675 8.5293 45.7198 8.5293 45.1675C8.5293 44.6152 8.97701 44.1675 9.5293 44.1675H19.8408Z" fill="#9EA1A4"/>
<path d="M43.8584 30.9272C49.6148 30.9275 54.2812 35.5946 54.2812 41.3511C54.2812 43.2931 53.7482 45.1099 52.8232 46.6665L56.9141 50.7573C57.6951 51.5384 57.6951 52.8044 56.9141 53.5854C56.133 54.3665 54.867 54.3665 54.0859 53.5854L50.1553 49.6548C48.4057 50.9836 46.2248 51.7738 43.8584 51.7739C38.1019 51.7739 33.4348 47.1075 33.4346 41.3511C33.4346 35.5944 38.1017 30.9272 43.8584 30.9272ZM43.8584 34.9272C40.3109 34.9272 37.4346 37.8035 37.4346 41.3511L37.4434 41.6812C37.6099 44.9656 40.243 47.5986 43.5273 47.7651L43.8584 47.7739C47.2948 47.7737 50.1004 45.0749 50.2725 41.6812L50.2812 41.3511C50.2812 37.9144 47.5824 35.1081 44.1885 34.936L43.8584 34.9272Z" fill="#9EA1A4"/>
</svg>
