<svg width="354" height="111" viewBox="0 0 354 111" fill="none" xmlns="http://www.w3.org/2000/svg">
<rect x="0.5" y="0.5" width="353" height="110" rx="4.5" fill="white"/>
<rect x="0.5" y="0.5" width="353" height="110" rx="4.5" stroke="#8A38F5" stroke-dasharray="10 5"/>
<path d="M24 70.5H34C35.933 70.5 37.5 72.067 37.5 74V84C37.5 85.933 35.933 87.5 34 87.5H24C22.067 87.5 20.5 85.933 20.5 84V74C20.5 72.067 22.067 70.5 24 70.5Z" fill="white"/>
<path d="M24 70.5H34C35.933 70.5 37.5 72.067 37.5 74V84C37.5 85.933 35.933 87.5 34 87.5H24C22.067 87.5 20.5 85.933 20.5 84V74C20.5 72.067 22.067 70.5 24 70.5Z" stroke="#AEAEAE"/>
<path d="M110 70.5H120C121.933 70.5 123.5 72.067 123.5 74V84C123.5 85.933 121.933 87.5 120 87.5H110C108.067 87.5 106.5 85.933 106.5 84V74C106.5 72.067 108.067 70.5 110 70.5Z" fill="white"/>
<path d="M110 70.5H120C121.933 70.5 123.5 72.067 123.5 74V84C123.5 85.933 121.933 87.5 120 87.5H110C108.067 87.5 106.5 85.933 106.5 84V74C106.5 72.067 108.067 70.5 110 70.5Z" stroke="#2189FF"/>
<path d="M192 74C192 71.7909 193.791 70 196 70H206C208.209 70 210 71.7909 210 74V84C210 86.2091 208.209 88 206 88H196C193.791 88 192 86.2091 192 84V74Z" fill="#2189FF"/>
<path d="M207.164 74.8216C207.383 74.6016 207.74 74.6011 207.96 74.8204C208.16 75.0198 208.178 75.3322 208.015 75.5527L207.961 75.6159L200.64 82.959C200.157 83.4418 199.391 83.4703 198.876 83.0437L198.782 82.9584L194.039 78.2011C193.82 77.9812 193.82 77.625 194.04 77.4057C194.24 77.2063 194.553 77.1886 194.773 77.3523L194.836 77.4069L199.579 82.164C199.639 82.2248 199.733 82.235 199.804 82.1945L199.844 82.1641L207.164 74.8216Z" fill="white"/>
<path d="M278 74C278 71.7909 279.791 70 282 70H292C294.209 70 296 71.7909 296 74V84C296 86.2091 294.209 88 292 88H282C279.791 88 278 86.2091 278 84V74Z" fill="#D7D7D7"/>
<path d="M293.164 74.8216C293.383 74.6016 293.74 74.6011 293.96 74.8204C294.16 75.0198 294.178 75.3322 294.015 75.5527L293.961 75.6159L286.64 82.959C286.157 83.4418 285.391 83.4703 284.876 83.0437L284.782 82.9584L280.039 78.2011C279.82 77.9812 279.82 77.625 280.04 77.4057C280.24 77.2063 280.553 77.1886 280.773 77.3523L280.836 77.4069L285.579 82.164C285.639 82.2248 285.733 82.235 285.804 82.1945L285.844 82.1641L293.164 74.8216Z" fill="white"/>
<rect x="20.5" y="20.5" width="17" height="17" rx="8.5" fill="white"/>
<rect x="20.5" y="20.5" width="17" height="17" rx="8.5" stroke="#AEAEAE"/>
<rect x="106.5" y="20.5" width="17" height="17" rx="8.5" fill="white"/>
<rect x="106.5" y="20.5" width="17" height="17" rx="8.5" stroke="#2189FF"/>
<rect x="192.5" y="20.5" width="17" height="17" rx="8.5" fill="white"/>
<rect x="192.5" y="20.5" width="17" height="17" rx="8.5" stroke="#2189FF"/>
<circle cx="201" cy="29.0001" r="6.23077" fill="#2189FF"/>
<rect x="278.5" y="20.5" width="17" height="17" rx="8.5" fill="white"/>
<rect x="278.5" y="20.5" width="17" height="17" rx="8.5" stroke="#D7D7D7"/>
<circle cx="287" cy="29.0001" r="6.23077" fill="#D7D7D7"/>
</svg>
