<svg width="773" height="147" viewBox="0 0 773 147" fill="none" xmlns="http://www.w3.org/2000/svg">
<rect x="0.5" y="0.5" width="772" height="146" rx="4.5" stroke="#9747FF" stroke-dasharray="10 5"/>
<path d="M240.038 40.3814L232.26 32.7124C231.863 32.3204 231.863 31.6804 232.26 31.2884L240.038 23.6184" stroke="#D7D7D7" stroke-width="1.5" stroke-linecap="round" stroke-linejoin="round"/>
<path d="M265.962 40.3814L273.74 32.7124C274.137 32.3204 274.137 31.6794 273.74 31.2884L265.962 23.6184" stroke="#D7D7D7" stroke-width="1.5" stroke-linecap="round"/>
<path d="M176.382 36.0379L168.712 28.2599C168.32 27.8629 167.679 27.8629 167.288 28.2599L159.618 36.0379" stroke="#D7D7D7" stroke-width="1.5" stroke-linecap="round" stroke-linejoin="round"/>
<path d="M210.382 27.9622L202.712 35.7402C202.32 36.1372 201.679 36.1372 201.288 35.7402L193.618 27.9622" stroke="#D7D7D7" stroke-width="1.5" stroke-linecap="round" stroke-linejoin="round"/>
<path d="M138.038 40.3814L130.26 32.7124C129.863 32.3204 129.863 31.6804 130.26 31.2884L138.038 23.6184" stroke="#D7D7D7" stroke-width="1.5" stroke-linecap="round" stroke-linejoin="round"/>
<path d="M107 37.75C107.414 37.75 107.75 38.086 107.75 38.5C107.75 38.915 107.414 39.25 107 39.25H93C92.586 39.25 92.25 38.915 92.25 38.5C92.25 38.086 92.586 37.75 93 37.75H107ZM107 31.25C107.414 31.25 107.75 31.586 107.75 32C107.75 32.415 107.414 32.75 107 32.75H93C92.586 32.75 92.25 32.415 92.25 32C92.25 31.586 92.586 31.25 93 31.25H107ZM107 24.75C107.414 24.75 107.75 25.086 107.75 25.5C107.75 25.915 107.414 26.25 107 26.25H93C92.586 26.25 92.25 25.915 92.25 25.5C92.25 25.086 92.586 24.75 93 24.75H107Z" fill="#D7D7D7"/>
<path d="M67.06 31.9995L73.031 26.0305C73.324 25.7375 73.324 25.2635 73.031 24.9705C72.738 24.6775 72.262 24.6775 71.97 24.9705L65.999 30.9385L60.03 24.9705C59.737 24.6775 59.262 24.6775 58.969 24.9705C58.676 25.2635 58.676 25.7375 58.969 26.0305L64.939 31.9995L58.969 37.9705C58.676 38.2635 58.676 38.7375 58.969 39.0305C59.116 39.1775 59.307 39.2495 59.499 39.2495C59.692 39.2495 59.883 39.1775 60.03 39.0305L65.999 33.0615L71.97 39.0305C72.116 39.1775 72.308 39.2495 72.5 39.2495C72.692 39.2495 72.884 39.1775 73.031 39.0305C73.324 38.7375 73.324 38.2635 73.031 37.9705L67.06 31.9995Z" fill="#D7D7D7"/>
<path fill-rule="evenodd" clip-rule="evenodd" d="M33.4713 24.5454L39.0783 29.2214C39.8183 29.8384 40.2463 30.7534 40.2463 31.7164V37.3604C40.2463 38.7414 39.1273 39.8604 37.7463 39.8604L35.2223 39.8597L35.2228 33.7797C35.2228 33.0004 34.6275 32.3593 33.8672 32.2866L33.7228 32.2797H30.9768C30.1488 32.2797 29.4768 32.9517 29.4768 33.7797V39.6597L35.1933 39.8597L26.9543 39.8604C25.5733 39.8604 24.4543 38.7414 24.4543 37.3604V31.7164C24.4543 30.7534 24.8823 29.8384 25.6223 29.2214L31.2293 24.5454C31.8783 24.0044 32.8213 24.0044 33.4713 24.5454Z" stroke="#D7D7D7" stroke-width="1.2" stroke-linecap="round" stroke-linejoin="round"/>
<path fill-rule="evenodd" clip-rule="evenodd" d="M310.25 27.161H305.625C305.213 27.161 304.634 26.925 304.339 26.637L302.945 25.274C302.65 24.986 302.071 24.75 301.658 24.75H297.75C296.37 24.75 295.25 25.869 295.25 27.25V36.75C295.25 38.131 296.37 39.25 297.75 39.25H310.25C311.631 39.25 312.75 38.131 312.75 36.75V29.661C312.75 28.28 311.631 27.161 310.25 27.161Z" stroke="#D7D7D7" stroke-width="1.5" stroke-linecap="round" stroke-linejoin="round"/>
<path d="M335.826 39.1145C336.409 39.5355 337.168 39.7915 338.001 39.7915C338.835 39.7915 339.594 39.5355 340.177 39.1145M333.319 27.2075C334.13 25.4285 335.921 24.2085 338.001 24.2085C340.772 24.2085 343.03 26.3745 343.141 29.1435C343.142 29.1655 343.144 29.1885 343.147 29.2105V31.6935C343.147 31.8145 343.174 31.9345 343.226 32.0435L344.659 35.0555C344.916 35.5945 344.522 36.2165 343.926 36.2165H342.328H332.076C331.479 36.2165 331.085 35.5945 331.342 35.0555L332.775 32.0435C332.827 31.9345 332.855 31.8145 332.855 31.6935V29.2105C332.858 29.1885 332.859 29.1655 332.86 29.1435C332.888 28.4525 333.049 27.7995 333.319 27.2075Z" stroke="#D7D7D7" stroke-width="1.5" stroke-linecap="round" stroke-linejoin="round"/>
<path d="M377.109 25H379.576C379.99 25 380.326 24.664 380.326 24.25C380.326 23.836 379.99 23.5 379.576 23.5H374.896C374.212 23.5 373.655 24.057 373.655 24.742V29.16C373.655 29.574 373.99 29.91 374.405 29.91C374.819 29.91 375.155 29.574 375.155 29.16V25.563C377.565 26.756 379.11 29.215 379.11 31.912C379.11 35.82 375.921 39 372 39C368.081 39 364.891 35.82 364.891 31.912C364.891 28.659 367.098 25.832 370.257 25.038C370.659 24.938 370.903 24.529 370.801 24.128C370.701 23.727 370.292 23.482 369.891 23.583C366.064 24.546 363.391 27.971 363.391 31.912C363.391 36.647 367.254 40.5 372 40.5C376.748 40.5 380.61 36.647 380.61 31.912C380.61 29.154 379.279 26.599 377.109 25Z" fill="#D7D7D7"/>
<path d="M398.788 30.4116C398.788 27.3096 401.311 24.7876 404.413 24.7876C407.515 24.7876 410.038 27.3096 410.038 30.4116C410.038 33.5136 407.515 36.0376 404.413 36.0376C401.311 36.0376 398.788 33.5136 398.788 30.4116ZM414.493 39.4326L409.951 34.8896C410.942 33.6646 411.538 32.1066 411.538 30.4116C411.538 26.4826 408.342 23.2876 404.413 23.2876C400.484 23.2876 397.288 26.4826 397.288 30.4116C397.288 34.3406 400.484 37.5376 404.413 37.5376C406.107 37.5376 407.666 36.9406 408.89 35.9496L413.433 40.4926C413.579 40.6396 413.771 40.7126 413.963 40.7126C414.155 40.7126 414.347 40.6396 414.493 40.4926C414.786 40.1996 414.786 39.7246 414.493 39.4326Z" fill="#D7D7D7"/>
<path fill-rule="evenodd" clip-rule="evenodd" d="M441.386 23.145C441.858 23.145 442.309 23.4227 442.559 23.8713L442.622 23.9978L442.669 24.1398L443.112 25.8656L443.153 25.899C443.243 25.9818 443.462 26.1918 443.553 26.2499C443.543 26.2434 443.552 26.2416 443.57 26.2416L443.666 26.2421L443.734 26.2292L445.444 25.7525C445.9 25.6251 446.41 25.7719 446.771 26.1393L446.865 26.2449L446.947 26.3674L448.335 28.7805C448.564 29.1796 448.555 29.6919 448.307 30.1317L448.225 30.2612L448.116 30.3875L446.848 31.6376C446.811 31.6733 446.77 31.7467 446.756 31.7581L446.75 31.7534L446.748 31.8195L446.746 32.2321C446.747 32.2181 446.753 32.2235 446.761 32.2368L446.802 32.3102L446.848 32.3634L448.118 33.6147C448.446 33.941 448.574 34.4422 448.447 34.936L448.406 35.0703L448.335 35.2203L446.947 37.6327C446.711 38.0426 446.245 38.2948 445.73 38.2863L445.589 38.2775L445.444 38.2475L443.734 37.7706C443.752 37.7757 443.31 37.8966 443.192 37.958C443.21 37.9485 443.174 37.9982 443.151 38.0375L443.137 38.0639L443.113 38.133L442.669 39.8618C442.55 40.3189 442.169 40.6859 441.672 40.8155L441.533 40.8449L441.386 40.8549H438.614C438.141 40.8549 437.69 40.5767 437.441 40.1269L437.378 40.0001L437.332 39.8608L436.887 38.1337C436.891 38.1498 436.564 37.8248 436.449 37.7506C436.458 37.7567 436.448 37.7582 436.43 37.7581L436.335 37.7572L436.265 37.7707L434.556 38.2474C434.1 38.3747 433.591 38.2275 433.23 37.861L433.135 37.7557L433.053 37.6324L431.668 35.2225C431.436 34.8235 431.444 34.3099 431.693 33.8689L431.774 33.7389L431.884 33.6124L433.152 32.3633C433.188 32.3276 433.229 32.2535 433.244 32.2405L433.252 32.1804L433.254 31.7712C433.252 31.7979 433.23 31.7471 433.211 31.7118L433.197 31.6897L433.152 31.6365L431.882 30.3865C431.553 30.0606 431.426 29.559 431.553 29.0649L431.593 28.9305L431.665 28.7796L433.052 26.3683C433.288 25.9569 433.755 25.7047 434.27 25.7135L434.411 25.7225L434.556 25.7525L436.263 26.2286C436.246 26.2239 436.689 26.1025 436.811 26.0388C436.801 26.044 436.805 26.0344 436.814 26.0185L436.864 25.9334L436.887 25.8669L437.331 24.1405C437.448 23.682 437.83 23.3143 438.328 23.1844L438.467 23.155L438.614 23.145H441.386ZM438.691 24.5667L438.254 26.2648L438.205 26.4117C438.061 26.7832 437.79 27.1348 437.47 27.3018C437.092 27.4988 436.462 27.6811 436.022 27.6281L435.883 27.6014L434.249 27.1423L432.934 29.4225L434.182 30.6542L434.286 30.7715C434.504 31.0466 434.658 31.4004 434.677 31.6965L434.676 32.2073L434.668 32.3605C434.628 32.673 434.468 33.0156 434.249 33.2732L434.151 33.3781L432.935 34.5708L434.246 36.8548L435.925 36.388L436.078 36.3567C436.471 36.2959 436.911 36.3559 437.217 36.5512C437.58 36.7848 438.057 37.2472 438.225 37.6567L438.266 37.7777L438.689 39.4294L441.308 39.4323L441.746 37.7373L441.794 37.5894C441.937 37.2193 442.208 36.8675 442.529 36.6972C442.908 36.4996 443.539 36.3175 443.978 36.3715L444.116 36.3985L445.75 36.8567L447.065 34.5765L445.817 33.3457L445.714 33.2284C445.494 32.9524 445.341 32.5976 445.322 32.3027L445.323 31.7954L445.332 31.6416C445.37 31.3285 445.531 30.9858 445.75 30.7278L445.848 30.6228L447.065 29.4272L445.753 27.1442L444.072 27.6122L443.92 27.6431C443.526 27.7034 443.086 27.6434 442.784 27.4493C442.424 27.2193 441.943 26.7535 441.774 26.3428L441.733 26.2215L441.31 24.5695L438.691 24.5667ZM440 28.6912C441.827 28.6912 443.308 30.1725 443.308 32C443.308 33.8267 441.827 35.3087 440 35.3087C438.173 35.3087 436.692 33.8265 436.692 32C436.692 30.1727 438.173 28.6912 440 28.6912ZM440 30.1158C438.96 30.1158 438.116 30.9594 438.116 32C438.116 33.0399 438.96 33.8841 440 33.8841C441.04 33.8841 441.884 33.04 441.884 32C441.884 30.9593 441.04 30.1158 440 30.1158Z" fill="#D7D7D7"/>
<path d="M469.251 23.5391C469.665 23.5391 470.001 23.8749 470.001 24.2891C470.001 24.6688 469.718 24.9826 469.352 25.0323L469.251 25.0391H467.947C467.299 25.0391 466.767 25.531 466.703 26.1613L466.697 26.2891V27.6251C466.697 28.0393 466.361 28.3751 465.947 28.3751C465.567 28.3751 465.253 28.0929 465.203 27.7269L465.197 27.6251V26.2891C465.197 24.8264 466.339 23.6307 467.779 23.5441L467.947 23.5391H469.251Z" fill="#D7D7D7"/>
<path d="M480.053 23.5391C481.516 23.5391 482.712 24.6804 482.798 26.1215L482.803 26.2891V27.6251C482.803 28.0393 482.468 28.3751 482.053 28.3751C481.674 28.3751 481.36 28.0929 481.31 27.7269L481.303 27.6251V26.2891C481.303 25.6415 480.812 25.1095 480.181 25.0455L480.053 25.0391H478.75C478.336 25.0391 478 24.7033 478 24.2891C478 23.9094 478.283 23.5956 478.649 23.5459L478.75 23.5391H480.053Z" fill="#D7D7D7"/>
<path d="M465.947 35.375C466.326 35.375 466.64 35.6572 466.69 36.0232L466.697 36.125V37.711C466.697 38.3577 467.189 38.8905 467.819 38.9545L467.947 38.961H469.251C469.665 38.961 470.001 39.2968 470.001 39.711C470.001 40.0907 469.718 40.4045 469.352 40.4542L469.251 40.461H467.947C466.485 40.461 465.288 39.3188 465.202 37.8785L465.197 37.711V36.125C465.197 35.7108 465.532 35.375 465.947 35.375Z" fill="#D7D7D7"/>
<path d="M482.053 35.5C482.433 35.5 482.747 35.7822 482.797 36.1482L482.803 36.25V37.586C482.803 39.0483 481.662 40.2444 480.221 40.331L480.053 40.336H478.75C478.336 40.336 478 40.0002 478 39.586C478 39.2063 478.283 38.8925 478.649 38.8428L478.75 38.836H480.053C480.701 38.836 481.233 38.344 481.297 37.7138L481.303 37.586V36.25C481.303 35.8358 481.639 35.5 482.053 35.5Z" fill="#D7D7D7"/>
<path d="M504.394 24.9287C504.396 24.9356 504.4 24.948 504.389 24.9736C504.376 25.0031 504.347 25.0378 504.302 25.0605C503.259 25.5833 502.34 26.3251 501.611 27.2373C500.697 28.3816 500.118 29.7512 499.938 31.1982C499.757 32.6454 499.982 34.1132 500.589 35.4424C501.195 36.7714 502.159 37.9108 503.374 38.7373C504.589 39.5638 506.011 40.0473 507.483 40.1357C508.956 40.2241 510.425 39.9145 511.732 39.2402C513.04 38.5657 514.138 37.5507 514.904 36.3047C515.515 35.3115 515.897 34.2017 516.026 33.0537C516.031 33.0114 516.051 32.9738 516.077 32.9492C516.101 32.927 516.122 32.9209 516.14 32.9209C516.151 32.921 516.159 32.9262 516.165 32.9287C516.049 34.1348 515.66 35.3042 515.019 36.3477C514.243 37.6084 513.131 38.6383 511.801 39.3242C510.471 40.0101 508.974 40.3255 507.474 40.2354C505.973 40.1452 504.528 39.6521 503.293 38.8125C502.059 37.973 501.083 36.8188 500.47 35.4756C499.857 34.1322 499.628 32.6498 499.811 31.1895C499.993 29.729 500.578 28.3437 501.504 27.1846C502.275 26.2198 503.258 25.4418 504.376 24.9072C504.382 24.9105 504.389 24.9172 504.394 24.9287ZM508.353 23.7549C510.063 23.8902 511.707 24.4852 513.102 25.4814C514.49 26.4735 515.568 27.8187 516.226 29.3633L508.354 31.8799H508.353V23.7549Z" stroke="#D7D7D7" stroke-width="1.5"/>
<path fill-rule="evenodd" clip-rule="evenodd" d="M542 32.8648C545.728 32.8648 548.75 35.3968 548.75 38.1258V38.8648C548.75 39.4178 548.254 39.8648 547.641 39.8648H536.359C535.747 39.8648 535.25 39.4178 535.25 38.8648V38.1258C535.25 35.3968 538.273 32.8648 542 32.8648ZM542 24.135C543.794 24.135 545.25 25.59 545.25 27.385C545.25 29.18 543.794 30.635 542 30.635C540.205 30.635 538.75 29.18 538.75 27.385C538.75 25.59 540.205 24.135 542 24.135Z" stroke="#D7D7D7" stroke-width="1.5" stroke-linecap="round"/>
<path fill-rule="evenodd" clip-rule="evenodd" d="M579.25 25C579.664 25 580 25.336 580 25.75V38.25C580 38.664 579.664 39 579.25 39C578.836 39 578.5 38.664 578.5 38.25V25.75C578.5 25.37 578.782 25.0567 579.148 25.007L579.25 25ZM570.263 26.323C570.55 26.0243 571.024 26.0137 571.324 26.3003L576.06 30.839C576.374 31.1407 576.555 31.564 576.555 32C576.555 32.436 576.375 32.8593 576.06 33.161L571.324 37.6993C571.025 37.9863 570.55 37.9767 570.263 37.678C569.977 37.3793 569.987 36.9047 570.286 36.6173L574.33 32.7403H562.75C562.335 32.7403 562 32.4053 562 31.991C562 31.5773 562.335 31.241 562.75 31.241H574.311L570.286 27.3833C569.987 27.0967 569.977 26.622 570.263 26.323Z" fill="#D7D7D7"/>
<path d="M598.326 36.7464C599.015 36.7464 599.576 37.3094 599.576 37.9994C599.576 38.6914 599.015 39.2534 598.326 39.2534C597.637 39.2534 597.076 38.6914 597.076 37.9994C597.076 37.3094 597.637 36.7464 598.326 36.7464ZM612.174 37.4439C612.588 37.4439 612.924 37.7789 612.924 38.1939C612.924 38.6079 612.588 38.9439 612.174 38.9439H602.674C602.259 38.9439 601.924 38.6079 601.924 38.1939C601.924 37.7789 602.259 37.4439 602.674 37.4439H612.174ZM598.326 30.7466C599.015 30.7466 599.576 31.3086 599.576 31.9996C599.576 32.6906 599.015 33.2536 598.326 33.2536C597.637 33.2536 597.076 32.6906 597.076 31.9996C597.076 31.3086 597.637 30.7466 598.326 30.7466ZM612.174 31.2505C612.588 31.2505 612.924 31.5855 612.924 32.0005C612.924 32.4145 612.588 32.7505 612.174 32.7505H602.674C602.259 32.7505 601.924 32.4145 601.924 32.0005C601.924 31.5855 602.259 31.2505 602.674 31.2505H612.174ZM598.326 24.7466C599.015 24.7466 599.576 25.3086 599.576 25.9996C599.576 26.6906 599.015 27.2536 598.326 27.2536C597.637 27.2536 597.076 26.6906 597.076 25.9996C597.076 25.3086 597.637 24.7466 598.326 24.7466ZM612.174 25.0562C612.588 25.0562 612.924 25.3922 612.924 25.8062C612.924 26.2202 612.588 26.5562 612.174 26.5562H602.674C602.259 26.5562 601.924 26.2202 601.924 25.8062C601.924 25.3922 602.259 25.0562 602.674 25.0562H612.174Z" fill="#D7D7D7"/>
<path d="M638.906 38.9538L639.017 38.9601C639.488 39.0149 639.854 39.4157 639.854 39.9006V40.8019C639.854 41.3252 639.429 41.7498 638.906 41.7498L638.796 41.7433C638.324 41.6881 637.958 41.2883 637.958 40.8019V39.9017C637.958 39.3784 638.383 38.9538 638.906 38.9538ZM642.395 38.0693C642.847 37.8082 643.428 37.9621 643.69 38.4149L644.14 39.1949C644.403 39.6488 644.248 40.2284 643.795 40.4906C643.645 40.5762 643.482 40.6184 643.32 40.6184C642.993 40.6184 642.675 40.4472 642.499 40.145L642.048 39.3639C641.786 38.9111 641.942 38.3315 642.395 38.0693ZM634.147 38.3222C634.408 37.8683 634.988 37.7123 635.441 37.9744C635.895 38.2366 636.051 38.8162 635.789 39.269L635.338 40.0501C635.163 40.3534 634.844 40.5235 634.517 40.5235C634.356 40.5235 634.193 40.4823 634.044 40.3968C633.591 40.1357 633.435 39.5561 633.697 39.1022L634.147 38.3222ZM644.975 35.5591C645.237 35.1052 645.816 34.9503 646.269 35.2114L647.05 35.661C647.503 35.9231 647.659 36.5027 647.398 36.9566C647.222 37.2611 646.903 37.4301 646.576 37.4301C646.414 37.4301 646.252 37.39 646.102 37.3033L645.322 36.8537C644.869 36.5926 644.714 36.0131 644.975 35.5591ZM639.001 26.5832C641.992 26.5832 644.417 29.0088 644.417 31.9998C644.417 34.992 641.992 37.4165 639.001 37.4165C636.01 37.4165 633.584 34.992 633.584 31.9998C633.584 29.0088 636.01 26.5832 639.001 26.5832ZM631.637 35.0476C632.089 34.7865 632.669 34.9414 632.931 35.3943C633.193 35.8471 633.037 36.4288 632.585 36.6899L631.805 37.1406C631.655 37.2262 631.491 37.2673 631.331 37.2673C631.004 37.2673 630.685 37.0973 630.51 36.7939C630.248 36.34 630.404 35.7593 630.857 35.4983L631.637 35.0476ZM647.802 31.1461C648.326 31.1461 648.75 31.5707 648.75 32.094C648.75 32.6172 648.326 33.0419 647.802 33.0419L646.902 33.043L646.791 33.0365C646.319 32.9812 645.954 32.5804 645.954 32.0951C645.954 31.5718 646.378 31.1472 646.902 31.1472L647.802 31.1461ZM631.099 30.9578C631.622 30.9578 632.047 31.3825 632.047 31.9057C632.047 32.429 631.622 32.8536 631.099 32.8536H630.198C629.675 32.8536 629.25 32.429 629.25 31.9057C629.25 31.3825 629.675 30.9578 630.198 30.9578H631.099ZM646.196 26.8604C646.649 26.5982 647.229 26.7532 647.49 27.206C647.753 27.6588 647.598 28.2384 647.145 28.5017L646.365 28.9523C646.215 29.039 646.053 29.0802 645.891 29.0802C645.564 29.0802 645.246 28.9101 645.07 28.6057C644.808 28.1528 644.963 27.5722 645.416 27.3111L646.196 26.8604ZM630.604 27.0432C630.865 26.5903 631.446 26.4354 631.898 26.6965L632.678 27.1461C633.132 27.4082 633.287 27.9878 633.026 28.4407C632.851 28.7462 632.532 28.9162 632.204 28.9162C632.044 28.9162 631.88 28.8751 631.731 28.7884L630.951 28.3388C630.498 28.0767 630.342 27.4971 630.604 27.0432ZM642.663 23.9502C642.925 23.4974 643.504 23.3425 643.957 23.6036C644.411 23.8657 644.567 24.4464 644.304 24.8992L643.853 25.6792C643.678 25.9826 643.359 26.1527 643.032 26.1527C642.871 26.1527 642.708 26.1115 642.559 26.0248C642.106 25.7637 641.95 25.1831 642.212 24.7302L642.663 23.9502ZM634.207 23.5084C634.66 23.2473 635.241 23.4033 635.502 23.8561L635.952 24.6361C636.215 25.0889 636.059 25.6696 635.606 25.9307C635.456 26.0174 635.293 26.0574 635.132 26.0574C634.805 26.0574 634.486 25.8884 634.31 25.584L633.861 24.804C633.598 24.3512 633.754 23.7716 634.207 23.5084ZM639.095 22.25C639.618 22.25 640.043 22.6746 640.043 23.1979V24.0981C640.043 24.6214 639.618 25.046 639.095 25.046C638.572 25.046 638.147 24.6214 638.147 24.0981V23.1979C638.147 22.6746 638.572 22.25 639.095 22.25Z" fill="#D7D7D7"/>
<path fill-rule="evenodd" clip-rule="evenodd" d="M676.414 26.8826C676.414 25.882 676.238 24.922 675.917 24.0334C675.911 24.0191 675.911 24.0191 675.911 24.0191C675.906 24.0024 675.915 23.9961 675.929 24.0024C675.929 24.0024 675.929 24.0024 675.946 24.0104C678.912 25.273 681 28.2293 681 31.6781C681 36.2735 677.301 40.0001 672.739 40.0001C669.204 40.0001 666.188 37.764 665.009 34.617C665.002 34.6011 665.002 34.6011 665.002 34.6011C664.997 34.5844 665.001 34.5749 665.013 34.5797C665.013 34.5797 665.013 34.5797 665.027 34.5844C665.992 34.9831 667.047 35.203 668.154 35.203C672.715 35.203 676.414 31.478 676.414 26.8826Z" fill="#D7D7D7"/>
<path d="M707.285 22.1914L710.446 25.0154L707.285 27.9414V26.0054C707.262 26.0064 707.24 26.0124 707.217 26.0124C703.413 26.0124 700.32 29.1064 700.32 32.9104C700.32 36.7134 703.413 39.8084 707.217 39.8084C710.153 39.8084 712.773 37.9464 713.735 35.1744C713.916 34.6534 714.486 34.3764 715.008 34.5584C715.529 34.7394 715.805 35.3094 715.624 35.8304C714.382 39.4064 711.003 41.8084 707.217 41.8084C702.311 41.8084 698.32 37.8164 698.32 32.9104C698.32 28.0034 702.311 24.0124 707.217 24.0124C707.24 24.0124 707.262 24.0174 707.285 24.0194V22.1914ZM713.204 28.086C713.593 27.694 714.227 27.692 714.618 28.081C715.01 28.47 715.013 29.103 714.623 29.495L707.432 36.738L702.945 32.405C702.548 32.021 702.537 31.388 702.921 30.991C703.304 30.594 703.938 30.583 704.334 30.967L707.402 33.929L713.204 28.086Z" fill="#D7D7D7"/>
<path d="M749.219 26.4288C749.511 26.1354 749.986 26.1347 750.28 26.4272C750.546 26.693 750.571 27.1096 750.354 27.4036L750.281 27.4878L740.52 37.2786C739.877 37.9224 738.855 37.9603 738.168 37.3916L738.043 37.2778L731.719 30.9348C731.426 30.6415 731.427 30.1666 731.721 29.8742C731.987 29.6083 732.404 29.5847 732.697 29.803L732.781 29.8758L739.105 36.2186C739.186 36.2997 739.31 36.3133 739.406 36.2593L739.459 36.2188L749.219 26.4288Z" fill="#D7D7D7"/>
<path fill-rule="evenodd" clip-rule="evenodd" d="M28.2277 71.5191L37.4767 65.4761C38.6137 64.8201 38.6137 63.1801 37.4767 62.5241L28.2277 56.4811C27.0917 55.8251 25.6707 56.6451 25.6707 57.9571V70.0421C25.6707 71.3551 27.0917 72.1751 28.2277 71.5191Z" fill="#D7D7D7"/>
<path fill-rule="evenodd" clip-rule="evenodd" d="M62.0244 56.541L62.1694 56.5469C63.0781 56.6212 63.7974 57.3878 63.7974 58.314V69.685C63.7974 70.661 63.0004 71.459 62.0244 71.459C61.0474 71.459 60.2504 70.661 60.2504 69.685V58.314C60.2504 57.339 61.0474 56.541 62.0244 56.541ZM69.9756 56.541L70.1206 56.5469C71.0294 56.6212 71.7496 57.3878 71.7496 58.314V69.685C71.7496 70.661 70.9516 71.459 69.9756 71.459C68.9996 71.459 68.2026 70.661 68.2026 69.685V58.314C68.2026 57.339 68.9996 56.541 69.9756 56.541Z" fill="#D7D7D7"/>
<path fill-rule="evenodd" clip-rule="evenodd" d="M104.875 57.125H95.125C94.025 57.125 93.125 58.025 93.125 59.125V68.875C93.125 69.975 94.025 70.875 95.125 70.875H104.875C105.975 70.875 106.875 69.975 106.875 68.875V59.125C106.875 58.025 105.975 57.125 104.875 57.125Z" fill="#D7D7D7"/>
<path fill-rule="evenodd" clip-rule="evenodd" d="M33.121 88.5454L38.728 93.2214C39.468 93.8384 39.896 94.7534 39.896 95.7164V101.36C39.896 102.741 38.777 103.86 37.396 103.86L34.872 103.86L34.8725 97.7797C34.8725 97.0004 34.2772 96.3593 33.5169 96.2866L33.3725 96.2797H30.6265C29.7985 96.2797 29.1265 96.9517 29.1265 97.7797V103.66L34.843 103.86L26.604 103.86C25.223 103.86 24.104 102.741 24.104 101.36V95.7164C24.104 94.7534 24.532 93.8384 25.272 93.2214L30.879 88.5454C31.528 88.0044 32.471 88.0044 33.121 88.5454Z" stroke="#D7D7D7" stroke-width="0.8" stroke-linecap="round" stroke-linejoin="round"/>
<path d="M70.0379 104.381L62.2599 96.7124C61.8629 96.3204 61.8629 95.6804 62.2599 95.2884L70.0379 87.6184" stroke="#D7D7D7" stroke-width="0.8" stroke-linecap="round" stroke-linejoin="round"/>
<path d="M108.382 100.038L100.712 92.2599C100.32 91.8629 99.679 91.8629 99.288 92.2599L91.618 100.038" stroke="#D7D7D7" stroke-width="0.8" stroke-linecap="round"/>
<path d="M142.382 91.9622L134.712 99.7402C134.32 100.137 133.679 100.137 133.288 99.7402L125.618 91.9622" stroke="#D7D7D7" stroke-width="0.8" stroke-linecap="round"/>
<path d="M172.038 104.381L164.26 96.7124C163.863 96.3204 163.863 95.6804 164.26 95.2884L172.038 87.6184" stroke="#D7D7D7" stroke-width="0.8" stroke-linecap="round" stroke-linejoin="round"/>
<path d="M197.962 104.381L205.74 96.7124C206.137 96.3204 206.137 95.6794 205.74 95.2884L197.962 87.6184" stroke="#D7D7D7" stroke-width="0.8" stroke-linecap="round"/>
<path fill-rule="evenodd" clip-rule="evenodd" d="M242.25 91.161H237.625C237.213 91.161 236.634 90.925 236.339 90.637L234.945 89.274C234.65 88.986 234.071 88.75 233.658 88.75H229.75C228.37 88.75 227.25 89.869 227.25 91.25V100.75C227.25 102.131 228.37 103.25 229.75 103.25H242.25C243.631 103.25 244.75 102.131 244.75 100.75V93.661C244.75 92.28 243.631 91.161 242.25 91.161Z" stroke="#D7D7D7" stroke-width="0.8" stroke-linecap="round" stroke-linejoin="round"/>
<path d="M267.826 103.114C268.409 103.535 269.168 103.791 270.001 103.791C270.835 103.791 271.594 103.535 272.177 103.114M265.319 91.2075C266.13 89.4285 267.921 88.2085 270.001 88.2085C272.772 88.2085 275.03 90.3745 275.141 93.1435C275.142 93.1655 275.144 93.1885 275.147 93.2105V95.6935C275.147 95.8145 275.174 95.9345 275.226 96.0435L276.659 99.0555C276.916 99.5945 276.522 100.216 275.926 100.216H274.328H264.076C263.479 100.216 263.085 99.5945 263.342 99.0555L264.775 96.0435C264.827 95.9345 264.855 95.8145 264.855 95.6935V93.2105C264.858 93.1885 264.859 93.1655 264.86 93.1435C264.888 92.4525 265.049 91.7995 265.319 91.2075Z" stroke="#D7D7D7" stroke-width="0.8" stroke-linecap="round" stroke-linejoin="round"/>
<path fill-rule="evenodd" clip-rule="evenodd" d="M304 96.8648C307.728 96.8648 310.75 99.3968 310.75 102.126V102.865C310.75 103.418 310.254 103.865 309.641 103.865H298.359C297.747 103.865 297.25 103.418 297.25 102.865V102.126C297.25 99.3968 300.273 96.8648 304 96.8648ZM304 88.135C305.794 88.135 307.25 89.59 307.25 91.385C307.25 93.18 305.794 94.635 304 94.635C302.205 94.635 300.75 93.18 300.75 91.385C300.75 89.59 302.205 88.135 304 88.135Z" stroke="#D7D7D7" stroke-width="0.8" stroke-linecap="round" stroke-linejoin="round"/>
</svg>
